<?xml version="1.0" encoding="utf-8"?>
<!-- Generator: Adobe Illustrator 24.3.0, SVG Export Plug-In . SVG Version: 6.00 Build 0)  -->
<svg version="1.1" id="Layer_1" xmlns="http://www.w3.org/2000/svg" xmlns:xlink="http://www.w3.org/1999/xlink" x="0px" y="0px"
	 viewBox="0 0 149 54.7" style="enable-background:new 0 0 149 54.7;" xml:space="preserve">
<style type="text/css">
	.st0{fill:#17428B;}
</style>
<path class="st0" d="M123.7,23.9c-2,0-3.6,0.9-4.8,2.8c-1.3,1.8-1.9,4.2-1.9,7c0,2.8,0.7,5.2,2,7c1.4,1.9,3,2.8,5,2.8
	c1.8,0,3.4-0.9,4.8-2.6c1.4-1.8,2.1-4.1,2.1-7c0-2.6-0.7-4.9-2-6.9C127.5,24.9,125.8,23.9,123.7,23.9z M142.6,0H6.4
	C2.9,0,0,2.9,0,6.4v42c0,3.5,2.9,6.4,6.4,6.4h136.2c3.5,0,6.4-2.9,6.4-6.4v-42C149,2.9,146.1,0,142.6,0z M30.1,43.5
	c-0.5-0.1-0.9-0.4-1.3-1c-0.3-0.6-0.9-2.4-1.6-5.1l-2-7.1c-0.9-3.2-1-3.4-1-3.5c-0.5-1.1-1.4-1.4-2.4-1.1c-0.7,0.3-1.8,1-3.3,2.3
	c0,0-0.2,0.1-0.3,0.3c0.2,0.1,0.4,0.2,0.4,0.2c0.4,0.2,0.7,0.5,0.9,0.9c0.2,0.4,0.5,1.2,0.8,2.3l2.5,9.2c0.7,2.6,1.3,4.3,1.7,5.1
	c0.1,0.2,0.2,0.4,0.3,0.6c-5.7-0.5-10.7-1.8-10.7-3.3V28.7c0.7-2.3,1.7-4.4,3.3-6.2c2-2.4,4.5-4.1,7.6-5.2c3.8-1.3,7.3-1.5,10.5-0.5
	c3.2,1,5.5,3,7.1,6.1c2,4,2.1,7.9,0.3,11.7c-1.8,3.8-5.1,6.6-9.7,8.2C31.7,43.3,30.7,43.5,30.1,43.5z M45.3,43.1
	c-0.1,1.6-5.6,2.9-11.5,3.4c2.2-1.1,4.3-2.5,6.3-4.2c2.2-1.8,3.9-3.8,5.2-5.8V43.1z M45.3,12.4v5.2c-1.8-2.4-4.2-4-7.2-4.8
	c-3.8-1.1-8.2-0.7-13.1,1c-4.5,1.6-8.1,3.9-10.8,6.9v-8.4h0v0c0-2.2,7.4-4,15.5-4c8.1,0,15.6,1.8,15.6,4
	C45.3,12.3,45.3,12.3,45.3,12.4z M114.1,43.7c-1.6,0-3.2-0.1-4.8-0.2c-1.6,0-3.2,0.1-4.8,0.2v-0.9c3.2-0.2,2.9-1.3,3-4.4v-5.8
	c0-3.2,0.3-7.8-4-7.8c-1.8,0-3.5,1.3-4.2,3.1c-0.6,1.3-0.6,3.1-0.6,4.8V38c0.1,3.1-0.5,4.4,2.9,4.7v0.9c-1.6,0-3.2-0.1-4.7-0.2
	c-1.6,0-3.3,0.1-4.9,0.2v-0.9c3.3-0.2,2.9-1.3,3-4.4v-5.8c0-3.2,0.4-7.8-4-7.8c-1.8,0-3.5,1.3-4.2,3.1c-0.6,1.3-0.6,3.1-0.6,4.8V38
	c0,3.1-0.5,4.4,2.9,4.7v0.9c-1.6,0-3.1-0.1-4.7-0.2c-0.4,0-0.8,0-1.2,0c0,0-1.4,0.1-2.1,0.1c-0.6,0-1.7,0-1.7,0
	c-0.8,0-1.6-0.1-2.4-0.1c-2.1,0-4.2,0.1-6.3,0.2v-1.1c1.2,0,3.3,0,3.3-1.8c0-1.2-0.5-2.5-0.9-3.6l-1.7-4.8H60.9l-0.4,1.2
	c-0.7,1.8-2.1,5.2-2.1,7c0,2,2.2,1.9,3.5,2v1.1c-1.6,0-3.2-0.1-4.8-0.2c-1.5,0-3,0.1-4.5,0.2v-1.1c2.3-0.3,3.3-1,4.2-3.3
	c1.2-3,2.4-5.9,3.6-8.8L67,12.2h1.5l8.8,23.5c0.5,1.2,1.6,3.9,2.3,5.1c0.5,0.9,1,1.8,2,1.4c1.1-0.5,1-1.8,1-4v-5.7
	c0-1.3,0-4.5-0.2-5.6c-0.3-1.7-1.5-1.5-2.9-1.5v-0.9c2.3-0.3,3.9-1,6-1.4l0.5,3.8c1.6-2.4,3.7-3.8,6.5-3.8c2.6,0,5.1,1,5.9,3.8
	c1.5-2.5,3.8-3.8,6.6-3.8c1.9,0,3.8,0.6,5.1,2.2c1.2,1.5,1.2,4.2,1.2,6.1V38c0,3.1-0.4,4.4,2.9,4.7V43.7z M131.5,41
	c-2.2,2.3-4.9,3.4-7.9,3.4c-3,0-5.5-1-7.6-3.1c-2.1-2.1-3.2-4.6-3.2-7.5c0-2.9,1.1-5.4,3.2-7.6c2.2-2.2,4.8-3.3,8-3.3
	c3,0,5.5,1,7.6,2.9c2.1,2,3.2,4.4,3.2,7.4C134.8,36.1,133.7,38.7,131.5,41z M61.4,31H71l-4.8-13.1L61.4,31z"/>
</svg>
